<?xml version="1.0" encoding="utf-8"?>
<!-- Generator: Adobe Illustrator 24.0.3, SVG Export Plug-In . SVG Version: 6.00 Build 0)  -->
<svg version="1.1" id="Layer_1" xmlns="http://www.w3.org/2000/svg" xmlns:xlink="http://www.w3.org/1999/xlink" x="0px" y="0px"
	 viewBox="0 0 38.5 43.9" style="enable-background:new 0 0 38.5 43.9;" xml:space="preserve">
<g>
	<path d="M2.8,33c0-0.9,0-1.8,0-2.8c0-0.9,0-1.8,0-2.8c0-0.9,0-1.8,0-2.8c0-0.9,0-1.8,0-2.7c0-0.9,0-1.8,0-2.8c0-0.9,0-1.8,0-2.8
		c0-0.9,0-1.8,0-2.8c0-0.9,0-1.8,0-2.7c0-0.8,0-1.7,0-2.5c0-0.2-0.1-0.3-0.3-0.3c-0.6,0-1.2,0-1.7,0c-0.3,0-0.6-0.1-0.7-0.4
		C0,7.2,0,6.6,0.1,5.9c0.1-0.4,0.4-0.4,0.8-0.4c0.6,0,1.3,0,1.9,0c0.9,0,1.8,0,2.7,0c0.9,0,1.8,0,2.8,0c0.4,0,0.8,0,1.2,0
		c0.1,0,0.2,0,0.2-0.1c0.4-0.6,0.9-1.2,1.3-1.8c0.2-0.3,0.5-0.6,0.6-0.9c0.2-0.3,0.4-0.5,0.6-0.8c0.4-0.6,0.9-1,1.4-1.4
		c0.5-0.2,0.9-0.4,1.5-0.5c0.2,0,0.5,0,0.7,0c2.1,0,4.3,0,6.4,0c0.9,0,1.7,0.1,2.4,0.5c0.6,0.4,1.1,0.8,1.5,1.4
		c0.2,0.3,0.4,0.6,0.6,0.8c0.2,0.3,0.4,0.6,0.6,0.9c0.4,0.6,0.9,1.2,1.3,1.8c0.1,0.1,0.1,0.1,0.2,0.1c0.4,0,0.8,0,1.2,0
		c0.9,0,1.8,0,2.8,0c0.9,0,1.8,0,2.7,0c0.7,0,1.3,0,2,0c0.5,0,0.8,0.3,0.8,0.8c0,0.4,0,0.8,0,1.2c0,0.6-0.2,0.8-0.8,0.8
		c-0.6,0-1.2,0-1.7,0c-0.1,0-0.2,0-0.2,0.2c0,0.9,0,1.7,0,2.6c0,0.9,0,1.8,0,2.8c0,0.9,0,1.8,0,2.7c0,0.9,0,1.8,0,2.8
		c0,0.9,0,1.8,0,2.8c0,0.9,0,1.8,0,2.7c0,0.9,0,1.8,0,2.8c0,0.9,0,1.8,0,2.8c0,0.9,0,1.8,0,2.7c0,0.9,0,1.8,0,2.8c0,0.9,0,1.8,0,2.8
		c0,0.5,0,1,0,1.5c0,0.8-0.2,1.5-0.6,2.1c-0.5,0.8-1.2,1.3-2.1,1.7c-0.6,0.2-1.2,0.2-1.9,0.2c-8.1,0-16.2,0-24.3,0
		c-1.8,0-3.6-1.4-4-3.4c0-0.2-0.1-0.5-0.1-0.7c0-0.5,0-0.9,0-1.4c0-0.9,0-1.8,0-2.8C2.8,34.8,2.8,33.9,2.8,33z M16.5,2.8
		c-0.2,0-0.4,0-0.7,0c-0.5,0-0.9,0.2-1.2,0.6c-0.2,0.3-0.5,0.7-0.7,1c-0.3,0.4-0.5,0.7-0.8,1.1c1.2,0,2.3,0,3.4,0c0.9,0,1.8,0,2.8,0
		c0.9,0,1.8,0,2.8,0c1.1,0,2.1,0,3.2,0c0,0,0.1,0,0.1,0c0-0.1,0-0.1-0.1-0.1c-0.4-0.5-0.8-1-1.2-1.6c-0.5-0.8-1.1-1.1-2-1
		c0,0,0,0-0.1,0c-0.9,0-1.8,0-2.8,0C18.3,2.8,17.4,2.8,16.5,2.8z M5.5,24.7c0,0.9,0,1.8,0,2.8c0,0.9,0,1.8,0,2.8c0,0.9,0,1.8,0,2.8
		c0,0.9,0,1.8,0,2.7c0,0.9,0,1.8,0,2.8c0,0.5,0,1,0,1.5c0,0.6,0.5,1.2,1.2,1.2c0.5,0.1,1,0,1.6,0c0.9,0,1.8,0,2.8,0
		c0.9,0,1.8,0,2.7,0c0.9,0,1.8,0,2.8,0c0.9,0,1.8,0,2.8,0c0.9,0,1.8,0,2.8,0c0.9,0,1.8,0,2.8,0c0.9,0,1.8,0,2.7,0c0.9,0,1.8,0,2.8,0
		c0.5,0,1,0,1.5,0c0.7,0,1.2-0.6,1.3-1.2c0-0.5,0-1,0-1.5c0-0.9,0-1.8,0-2.8c0-0.9,0-1.8,0-2.8c0-0.9,0-1.8,0-2.7c0-0.9,0-1.8,0-2.8
		c0-0.9,0-1.8,0-2.8c0-0.9,0-1.8,0-2.7c0-0.9,0-1.8,0-2.8c0-0.9,0-1.8,0-2.8c0-0.9,0-1.8,0-2.7c0-0.9,0-1.8,0-2.8c0-0.9,0-1.7,0-2.6
		c0-0.1-0.1-0.2-0.2-0.2c-0.9,0-1.7,0-2.6,0c-0.9,0-1.8,0-2.8,0c-0.9,0-1.8,0-2.7,0c-0.9,0-1.8,0-2.8,0c-0.9,0-1.8,0-2.8,0
		c-0.9,0-1.8,0-2.8,0c-0.9,0-1.8,0-2.7,0c-0.9,0-1.8,0-2.8,0c-0.9,0-1.8,0-2.8,0c-0.9,0-1.7,0-2.6,0c-0.1,0-0.2,0-0.2,0.1
		c0,0.9,0,1.7,0,2.6c0,0.9,0,1.8,0,2.7c0,0.9,0,1.8,0,2.8c0,0.9,0,1.8,0,2.8c0,0.9,0,1.8,0,2.8C5.5,22.9,5.5,23.8,5.5,24.7z"/>
	<path d="M13.7,36.7c-0.2,0.3-0.5,0.3-0.8,0.3c-0.3,0-0.7,0-1,0c-0.3,0-0.6-0.1-0.8-0.4c-0.1-0.3,0-0.7-0.1-1c0-0.9,0-1.8,0-2.8
		c0-0.9,0-1.8,0-2.7c0-0.9,0-1.8,0-2.8c0-0.9,0-1.8,0-2.8c0-0.9,0-1.8,0-2.7c0-0.9,0-1.8,0-2.8c0-0.9,0-1.8,0-2.8c0-0.9,0-1.8,0-2.7
		c0-0.3,0-0.7,0-1c0.2-0.4,0.6-0.5,1-0.4c0.3,0,0.6,0,0.9,0c0.3,0,0.6,0.1,0.7,0.3c0.1,0.1,0.1,0.3,0.1,0.4c0,0.2,0,0.4,0,0.6
		c0,0.9,0,1.8,0,2.7c-0.1,0.1,0,0.2,0,0.3c0,0.7,0,1.4,0,2.1c0,0.1,0,0.3,0,0.4c0,0.9,0,1.8,0,2.8c-0.1,0.1,0,0.2,0,0.3
		c0,0.7,0,1.3,0,2c0,0.1,0,0.3,0,0.4c0,0.9,0,1.8,0,2.8c-0.1,0.1,0,0.2,0,0.3c0,0.7,0,1.4,0,2.1c0,0.1,0,0.3,0,0.4
		c0,0.9,0,1.8,0,2.7c-0.1,0.1,0,0.2,0,0.3c0,0.7,0,1.4,0,2.1c0,0.1,0,0.3,0,0.4C13.7,36,13.8,36.4,13.7,36.7z"/>
	<path d="M24.8,12.7c0.3-0.3,0.6-0.4,1-0.4c0.3,0,0.6,0,0.8,0c0.3,0,0.6,0.1,0.8,0.4c0.1,0.3,0,0.7,0.1,1c0,0.9,0,1.8,0,2.8
		c0,0.9,0,1.8,0,2.8c0,0.9,0,1.8,0,2.8c0,0.9,0,1.8,0,2.7c0,0.9,0,1.8,0,2.8c0,0.9,0,1.8,0,2.8c0,0.9,0,1.8,0,2.8c0,0.9,0,1.8,0,2.7
		c-0.1,0.3,0.1,0.7-0.1,1c-0.2,0.3-0.4,0.4-0.8,0.4c-0.4,0-0.7,0-1.1,0c-0.3,0-0.6-0.1-0.7-0.4c0-0.1-0.1-0.2-0.1-0.4
		c0-0.2,0-0.4,0-0.6c0-0.9,0-1.8,0-2.7c0.1-0.1,0-0.2,0-0.3c0-0.7,0-1.4,0-2.1c0-0.1,0-0.3,0-0.4c0-0.9,0-1.8,0-2.8
		c0.1-0.1,0-0.2,0-0.3c0-0.7,0-1.3,0-2c0-0.2,0-0.3,0-0.5c0-0.9,0-1.8,0-2.7c0.1-0.1,0-0.2,0-0.3c0-0.7,0-1.4,0-2.1
		c0-0.1,0-0.3,0-0.4c0-0.9,0-1.8,0-2.8c0.1-0.1,0-0.2,0-0.3c0-0.7,0-1.3,0-2c0-0.2,0-0.3,0-0.5C24.8,13.4,24.7,13,24.8,12.7z"/>
	<path d="M17.9,33c0-0.9,0-1.8,0-2.8c0-0.9,0-1.8,0-2.8c0-0.9,0-1.8,0-2.8c0-0.9,0-1.8,0-2.7c0-0.9,0-1.8,0-2.8c0-0.9,0-1.8,0-2.8
		c0-0.9,0-1.8,0-2.8c0-0.2,0-0.4,0-0.6c0-0.5,0.3-0.7,0.7-0.8c0.2,0,0.4,0,0.6,0c0.3,0,0.6,0,0.8,0c0.3,0.1,0.5,0.3,0.5,0.6
		c0,0.2,0,0.5,0,0.7c0,0.9,0,1.8,0,2.7c0,0.9,0,1.8,0,2.8c0,0.9,0,1.8,0,2.8c0,0.9,0,1.8,0,2.7c0,0.9,0,1.8,0,2.8c0,0.9,0,1.8,0,2.8
		c0,0.9,0,1.8,0,2.7c0,0.9,0,1.8,0,2.8c0,0.2,0,0.4,0,0.6c0,0.5-0.3,0.7-0.7,0.8c-0.2,0-0.4,0-0.6,0c-0.2-0.1-0.4,0-0.7,0
		c-0.4,0-0.7-0.3-0.7-0.7c0-0.2,0-0.4,0-0.6C17.9,34.8,17.9,33.9,17.9,33z"/>
</g>
</svg>
