<?xml version="1.0" encoding="utf-8"?>
<!-- Generator: Adobe Illustrator 24.0.3, SVG Export Plug-In . SVG Version: 6.00 Build 0)  -->
<svg version="1.1" id="Layer_1" xmlns="http://www.w3.org/2000/svg" xmlns:xlink="http://www.w3.org/1999/xlink" x="0px" y="0px"
	 viewBox="0 0 60 19.5" style="enable-background:new 0 0 60 19.5;" xml:space="preserve">
<style type="text/css">
	.st0{fill:none;stroke:#D32027;stroke-width:2;stroke-miterlimit:10;}
	.st1{fill:#E0499A;}
	.st2{font-family:'ArialRoundedMTBold';}
	.st3{font-size:15.0831px;}
</style>
<g>
	<path class="st0" d="M34.3,2c0.8,0,1.3,0.1,1.9,0.2c0.5,0.2,1.1,0.5,1.4,0.8c0.7,0.5,1.2,1.2,1.4,1.9c0.2,0.4,0.2,0.8,0.4,1.3
		c0,0.4,0.1,0.7,0,1.1c0,0.1,0,0.1,0.1,0.1c0.7,0.1,1.4,0.5,2,0.9c0.8,0.6,1.3,1.3,1.6,2.2c0.2,0.5,0.2,0.9,0.2,1.5
		c0,0.5,0,0.9-0.1,1.4c-0.1,0.6-0.5,1.2-0.8,1.6c-0.5,0.7-1.1,1.2-1.8,1.5c-0.6,0.4-1.3,0.5-2,0.6c-0.6,0-1.2-0.1-1.6-0.1
		c-0.5-0.1-0.9-0.1-1.4-0.2c-0.4-0.1-0.7-0.1-1.1-0.2c-0.2,0-0.6-0.1-0.8-0.1c-0.4,0-0.7-0.1-0.9-0.1c-0.5-0.1-0.9-0.1-1.4-0.2
		c-0.4,0-0.7-0.1-1.1-0.1c-0.2,0-0.6-0.1-0.8-0.1c-0.4,0-0.7-0.1-0.9-0.1s-0.2,0-0.2-0.4c0.1-0.5,0.1-1.1,0.2-1.5s0.1-0.9,0.2-1.4
		c0.1-0.6,0.1-1.1,0.2-1.6c0.1-0.4,0.1-0.8,0.2-1.2c0.1-0.5,0.1-0.9,0.2-1.4c0.1-0.4,0.1-0.8,0.2-1.2c0.1-0.6,0.1-1.2,0.4-1.6
		c0.1-0.5,0.4-0.8,0.6-1.2c0.4-0.5,0.6-0.8,1.1-1.2c0.6-0.5,1.2-0.7,1.9-0.9C33.7,2.1,34.1,2,34.3,2z"/>
	<text transform="matrix(1 0 0 1 0.7549 17.3578)" class="st1 st2 st3">Tun</text>
	<text transform="matrix(1 0 0 1 44.2285 17.3559)" class="st1 st2 st3">ra</text>
</g>
</svg>
