<?xml version="1.0" encoding="utf-8"?>
<!-- Generator: Adobe Illustrator 24.0.3, SVG Export Plug-In . SVG Version: 6.00 Build 0)  -->
<svg version="1.1" id="Layer_1" xmlns="http://www.w3.org/2000/svg" xmlns:xlink="http://www.w3.org/1999/xlink" x="0px" y="0px"
	 viewBox="0 0 22 22" style="enable-background:new 0 0 22 22;" xml:space="preserve">
<style type="text/css">
	.st0{fill:#E0499A;}
</style>
<path class="st0" d="M21.3,9.1c-1.7-0.9-2.2-2.3-1.9-4.1c0-0.2,0-0.3,0-0.5c0-0.4,0.1-0.9-0.6-0.9s-0.6,0.5-0.6,0.9c0,0.7,0,1.3,0,2
	c-0.4,0.1-0.5-0.2-0.7-0.3c-1.8-1.4-3.6-2.8-5.4-4.3c-0.8-0.6-1.5-0.7-2.3,0C6.7,4.4,3.7,6.8,0.6,9.3c-0.4,0.3-0.6,0.5-0.2,1
	c0.4,0.4,0.7,0.4,1.1,0c0.2-0.2,0.6-0.4,1-0.8c0,0.5,0,0.8,0,1.1c0,3,0,5.9,0,8.9c0,0.7,0.3,1,1,1c5,0,9.9,0,14.9,0
	c0.8,0.1,1-0.3,1-1c0-2.3,0-4.7,0-7c0-0.9,0-1.9,0-3c0.5,0.4,0.8,0.6,1,0.6c0.4,0.4,0.7,0.5,1.1,0S21.7,9.3,21.3,9.1z M15,11.9
	c-1.1,1.4-2.5,2.6-3.7,4c-0.3,0.2-0.4,0.1-0.6-0.1c-1.2-1.2-2.4-2.4-3.5-3.7c-0.5-0.6-0.6-1.3-0.2-2c0.3-0.5,0.7-0.9,1.4-0.9
	c0.9,0,1.5,0.7,2.1,1.3c0.4,0.5,0.7,0.5,1.1,0c0.2-0.3,0.5-0.7,0.9-0.9c0.7-0.4,1.4-0.6,2.1,0C15.3,10.2,15.5,11.2,15,11.9z"/>
</svg>
