<?xml version="1.0" encoding="utf-8"?>
<!-- Generator: Adobe Illustrator 24.0.3, SVG Export Plug-In . SVG Version: 6.00 Build 0)  -->
<svg version="1.1" id="Layer_1" xmlns="http://www.w3.org/2000/svg" xmlns:xlink="http://www.w3.org/1999/xlink" x="0px" y="0px"
	 viewBox="0 0 22 22" style="enable-background:new 0 0 22 22;" xml:space="preserve">
<style type="text/css">
	.st0{fill:#23252A;}
</style>
<path class="st0" d="M1.5,11.2c0-2.3,0-4.7,0-7c0-1.7,0.7-2.4,2.4-2.4c4.7,0,9.5,0,14.2,0c1.6,0,2.3,0.8,2.3,2.4c0,4.7,0,9.5,0,14.2
	c0,1.6-0.7,2.4-2.3,2.4c-4.7,0-9.5,0-14.2,0c-1.7,0-2.4-0.8-2.4-2.4C1.5,15.9,1.5,13.6,1.5,11.2z M19.2,11.3c0-2.3,0-4.6,0-6.9
	c0-0.9-0.3-1.3-1.2-1.3c-4.6,0-9.3,0-13.9,0c-0.9,0-1.2,0.3-1.2,1.2c0,4.6,0,9.3,0,13.9c0,0.9,0.4,1.2,1.2,1.2c4.6,0,9.3,0,13.9,0
	c0.9,0,1.2-0.3,1.2-1.2C19.1,15.9,19.2,13.6,19.2,11.3z"/>
<path class="st0" d="M17.2,9.1c0,1-0.4,1.8-1,2.5c-1.4,1.5-2.8,2.9-4.2,4.4c-0.6,0.6-1.1,0.7-1.7,0c-1.4-1.5-3-3-4.3-4.6
	C4,9.4,5,6.4,7.6,5.9c0.9-0.2,1.8,0,2.4,0.6c0.7,0.7,1.2,0.7,2,0c1-0.8,2.2-0.9,3.4-0.3C16.5,6.8,17.1,7.8,17.2,9.1z M6.3,9.2
	c0,0.4,0.1,0.9,0.4,1.2c1.3,1.5,2.7,2.9,4.1,4.4c0.2,0.3,0.4,0.2,0.6,0c1.4-1.5,2.8-2.9,4.1-4.4c0.7-0.8,0.4-2-0.4-2.7
	c-0.7-0.6-1.7-0.5-2.5,0.2C12,8.2,11.7,9.1,11,9.1c-0.6,0-1-0.9-1.5-1.4C8.9,7.3,8.2,7,7.4,7.4C6.7,7.7,6.3,8.4,6.3,9.2z"/>
</svg>
