<?xml version="1.0" encoding="utf-8"?>
<!-- Generator: Adobe Illustrator 24.0.3, SVG Export Plug-In . SVG Version: 6.00 Build 0)  -->
<svg version="1.1" id="Layer_1" focusable="false" xmlns="http://www.w3.org/2000/svg" xmlns:xlink="http://www.w3.org/1999/xlink"
	 x="0px" y="0px" viewBox="0 0 384 384" style="enable-background:new 0 0 384 384;" xml:space="preserve">
<style type="text/css">
	.st0{fill:#FF4AA5;}
</style>
<path class="st0" d="M315.7,120.7C315.7,51.9,259.9-4,191-4S66.3,51.9,66.3,120.7c0,59.3,41.5,109,97,121.6V287h-31.2
	c-5.7,0-10.4,4.7-10.4,10.4V332c0,5.7,4.7,10.4,10.4,10.4h31.2v31.2c0,5.7,4.7,10.4,10.4,10.4h34.6c5.7,0,10.4-4.7,10.4-10.4v-31.2
	h31.2c5.7,0,10.4-4.7,10.4-10.4v-34.6c0-5.7-4.7-10.4-10.4-10.4h-31.2v-44.7C274.2,229.8,315.7,180,315.7,120.7z M121.7,120.7
	c0-38.2,31.1-69.3,69.3-69.3s69.3,31.1,69.3,69.3S229.2,190,191,190S121.7,158.9,121.7,120.7z"/>
</svg>
