<?xml version="1.0" encoding="utf-8"?>
<!-- Generator: Adobe Illustrator 24.0.3, SVG Export Plug-In . SVG Version: 6.00 Build 0)  -->
<svg version="1.1" id="Layer_1" focusable="false" xmlns="http://www.w3.org/2000/svg" xmlns:xlink="http://www.w3.org/1999/xlink"
	 x="0px" y="0px" viewBox="0 0 384 384" style="enable-background:new 0 0 384 384;" xml:space="preserve">
<style type="text/css">
	.st0{fill:#4682B4;}
</style>
<path class="st0" d="M372,0h-79c-10.7,0-16,12.9-8.5,20.5l16.9,16.9l-80.7,80.7C198.5,104.1,172.2,96,144,96C64.5,96,0,160.5,0,240
	s64.5,144,144,144s144-64.5,144-144c0-28.2-8.1-54.5-22.1-76.7l80.7-80.7l16.9,16.9c7.6,7.6,20.5,2.2,20.5-8.5V12
	C384,5.4,378.6,0,372,0L372,0z M144,320c-44.1,0-80-35.9-80-80s35.9-80,80-80s80,35.9,80,80S188.1,320,144,320z"/>
</svg>
