<?xml version="1.0" encoding="utf-8"?>
<!-- Generator: Adobe Illustrator 24.0.3, SVG Export Plug-In . SVG Version: 6.00 Build 0)  -->
<svg version="1.1" id="Layer_1" xmlns="http://www.w3.org/2000/svg" xmlns:xlink="http://www.w3.org/1999/xlink" x="0px" y="0px"
	 viewBox="0 0 22 22" style="enable-background:new 0 0 22 22;" xml:space="preserve">
<style type="text/css">
	.st0{fill:#24272B;}
</style>
<g>
	<path class="st0" d="M19.4,9.5c0,1.1,0,2.1,0,3c0,2.3,0,4.7,0,7c0,0.7-0.2,1.1-1,1c-5,0-9.9,0-14.9,0c-0.7,0-1-0.3-1-1
		c0-3,0-5.9,0-8.9c0-0.3,0-0.6,0-1.1c-0.4,0.4-0.8,0.6-1,0.8c-0.4,0.4-0.7,0.4-1.1,0c-0.4-0.5-0.2-0.7,0.2-1
		c3.1-2.5,6.1-4.9,9.2-7.4c0.8-0.7,1.5-0.6,2.3,0c1.8,1.5,3.6,2.9,5.4,4.3c0.2,0.1,0.3,0.4,0.7,0.3c0-0.7,0-1.3,0-2
		c0-0.4-0.1-0.9,0.6-0.9c0.7,0,0.6,0.5,0.6,0.9c0,0.2,0,0.3,0,0.5c-0.3,1.8,0.2,3.2,1.9,4.1c0.4,0.2,0.6,0.5,0.2,1
		c-0.4,0.5-0.7,0.4-1.1,0C20.2,10.1,19.9,9.9,19.4,9.5z M10.9,19.4c2.2,0,4.4,0,6.6,0c0.6,0,0.7-0.2,0.7-0.7c0-3.2,0-6.3,0-9.5
		c0-0.4-0.1-0.7-0.5-1c-2.1-1.7-4.2-3.3-6.2-5c-0.4-0.3-0.7-0.3-1.1,0c-2.1,1.7-4.1,3.4-6.2,5C3.9,8.4,3.8,8.7,3.8,9.1
		c0,3.2,0,6.4,0,9.6c0,0.6,0.2,0.7,0.7,0.7C6.6,19.4,8.8,19.4,10.9,19.4z"/>
	<path class="st0" d="M16.4,10.9c0,0.9-0.4,1.6-0.9,2.3c-1.2,1.3-2.5,2.5-3.7,3.8c-0.6,0.6-1.1,0.7-1.7,0c-1.2-1.3-2.5-2.6-3.7-3.9
		C4.8,11.2,5.6,8.5,8,8.1c0.9-0.2,1.8,0.1,2.4,0.7c0.5,0.5,0.7,0.5,1.3,0c0.9-0.8,2-1.1,3.2-0.5C15.8,8.8,16.4,9.7,16.4,10.9z
		 M8.4,9.2c-0.7,0-1.1,0.4-1.4,0.9c-0.4,0.7-0.3,1.4,0.2,2c1.1,1.3,2.3,2.5,3.5,3.7c0.2,0.2,0.3,0.3,0.6,0.1c1.2-1.4,2.6-2.6,3.7-4
		c0.5-0.7,0.3-1.7-0.4-2.3c-0.7-0.6-1.4-0.4-2.1,0c-0.4,0.2-0.7,0.6-0.9,0.9c-0.4,0.5-0.7,0.5-1.1,0C9.9,9.9,9.3,9.2,8.4,9.2z"/>
</g>
</svg>
